<?xml version="1.0" standalone="no"?>
<!DOCTYPE svg PUBLIC "-//W3C//DTD SVG 20010904//EN"
 "http://www.w3.org/TR/2001/REC-SVG-20010904/DTD/svg10.dtd">
<svg version="1.0" xmlns="http://www.w3.org/2000/svg"
 width="536.000000pt" height="536.000000pt" viewBox="0 0 536.000000 536.000000"
 preserveAspectRatio="xMidYMid meet">

<g transform="translate(0.000000,536.000000) scale(0.100000,-0.100000)"
fill="#000000" stroke="none">
<path d="M0 2680 l0 -2680 2680 0 2680 0 0 2680 0 2680 -2680 0 -2680 0 0
-2680z m2660 1905 l0 -506 -44 -47 c-24 -26 -53 -68 -65 -93 -12 -25 -40 -63
-64 -85 l-42 -40 -205 -38 c-113 -21 -213 -42 -223 -47 -11 -6 -24 -6 -34 0
-12 6 -28 3 -52 -10 -20 -10 -42 -19 -49 -19 -8 0 -91 -24 -186 -54 -94 -30
-190 -59 -213 -65 -24 -7 -43 -18 -43 -25 0 -31 202 -142 250 -138 13 1 36 13
50 27 15 14 38 25 53 25 15 0 66 18 114 39 49 22 115 47 148 57 33 10 71 26
84 36 13 10 33 18 45 18 11 0 48 13 81 29 33 17 87 39 120 49 33 11 85 29 116
40 30 12 78 24 107 28 51 6 52 6 52 -20 0 -14 -5 -35 -12 -45 -9 -14 -9 -35 0
-89 7 -39 12 -86 12 -105 0 -32 -3 -35 -62 -61 -35 -14 -66 -26 -70 -26 -5 0
-8 13 -8 29 0 37 -12 46 -100 76 -39 13 -96 36 -126 51 -75 37 -88 29 -81 -45
3 -34 16 -81 31 -111 32 -63 32 -70 2 -70 -13 0 -35 -9 -49 -20 -14 -11 -40
-20 -60 -20 -19 0 -61 -13 -93 -30 -32 -16 -67 -30 -77 -30 -10 0 -47 18 -82
41 l-65 41 -30 -22 -29 -21 29 -41 c22 -31 30 -52 30 -85 0 -24 7 -55 16 -68
10 -16 18 -56 22 -110 2 -47 10 -89 16 -94 8 -7 10 -30 5 -73 -3 -35 -2 -71 3
-81 5 -9 6 -22 3 -27 -4 -6 -296 -10 -811 -10 l-804 0 0 1195 0 1195 1195 0
1195 0 0 -505z m2430 -690 l0 -1195 -779 0 -778 0 3 262 c3 155 8 266 14 272
6 6 10 20 10 32 0 12 10 64 21 115 23 97 18 151 -16 179 -8 7 -55 20 -104 30
-55 11 -109 29 -143 48 -49 28 -57 30 -97 21 -23 -5 -59 -18 -79 -28 -21 -10
-66 -24 -102 -30 -36 -7 -75 -15 -86 -17 -17 -4 -23 0 -28 23 -10 37 -44 73
-71 73 -12 0 -39 13 -59 29 -20 16 -50 33 -67 36 -32 7 -40 35 -10 35 11 0 23
5 26 10 3 6 25 10 49 10 29 0 68 13 126 41 71 34 87 38 106 29 16 -9 26 -9 42
1 17 11 32 10 89 -3 l68 -17 21 27 c21 26 26 27 150 33 71 3 138 2 149 -1 11
-4 31 -4 45 0 14 3 44 3 68 0 28 -5 48 -2 61 7 26 18 61 76 61 101 0 22 -68
88 -106 102 -48 19 -119 11 -192 -20 -65 -28 -122 -42 -426 -106 -132 -28
-204 -50 -226 -69 -8 -7 -41 -16 -72 -20 -57 -6 -58 -6 -58 19 0 15 6 26 13
26 7 0 33 20 57 45 24 25 52 45 63 45 16 0 73 38 115 78 7 6 17 12 22 12 5 0
11 9 15 19 3 12 22 23 51 30 25 6 47 18 50 25 3 8 41 29 85 47 44 17 87 38 95
46 8 9 14 34 14 62 0 44 -2 49 -37 68 -21 11 -86 33 -145 48 -103 27 -108 29
-138 71 -31 43 -31 44 -56 27 -20 -13 -24 -21 -19 -44 4 -19 -2 -43 -19 -78
-15 -29 -22 -52 -16 -56 14 -9 -40 -108 -100 -183 l-50 -63 0 470 0 471 1195
0 1195 0 0 -1195z m-2430 20 c0 -18 -5 -25 -20 -25 -21 0 -24 8 -14 34 10 25
34 19 34 -9z m509 -494 c-6 -16 -6 -67 -1 -129 4 -56 5 -102 1 -102 -3 0 -18
10 -33 21 -23 18 -36 21 -78 16 -29 -4 -56 -11 -62 -17 -5 -5 -25 -10 -43 -10
-19 0 -50 -7 -70 -15 -19 -8 -39 -15 -43 -15 -4 0 -5 48 -2 107 4 91 2 108
-12 118 -14 10 -1 16 76 33 116 25 249 40 265 29 8 -6 9 -16 2 -36z m-509
-290 l0 -239 -57 -20 c-81 -29 -177 -58 -252 -77 -109 -28 -172 -71 -128 -88
6 -3 -23 -6 -65 -6 -65 -1 -78 2 -78 15 0 9 42 59 93 112 106 110 206 232 231
279 9 18 16 50 16 73 0 22 5 46 10 53 6 7 20 28 33 47 17 26 39 41 92 61 115
45 105 65 105 -210z m-370 94 c0 -3 -4 -13 -9 -23 -6 -9 -13 -39 -16 -65 -7
-52 -80 -206 -120 -250 -46 -52 -55 -34 -55 112 0 155 -2 151 125 208 49 22
75 28 75 18z m440 -140 c21 -34 24 -35 80 -35 32 0 71 5 87 11 15 6 73 13 128
16 62 3 109 11 123 20 29 18 37 12 22 -17 -9 -16 -9 -60 -1 -177 6 -86 11
-167 11 -180 l0 -23 -240 0 -240 0 0 44 c0 42 2 45 36 56 19 7 50 9 67 6 27
-5 39 0 72 29 l40 35 -35 30 c-34 30 -37 31 -107 25 l-73 -6 0 101 c0 55 2
100 4 100 2 0 14 -16 26 -35z m-70 -350 l0 -35 -81 0 c-97 0 -101 14 -13 47
85 31 94 30 94 -12z m-777 -170 c0 -49 -2 -117 -3 -151 -2 -66 19 -151 50
-201 15 -25 27 -33 49 -33 26 0 34 8 71 76 l42 76 -4 164 -3 164 111 0 c87 0
114 -3 124 -15 7 -8 18 -15 25 -15 7 0 18 7 25 15 10 12 40 15 151 15 l139 0
0 -27 c0 -27 -6 -30 -153 -81 -83 -30 -170 -60 -192 -68 -51 -18 -105 -51
-105 -64 0 -12 103 -90 120 -90 7 0 21 6 29 14 9 8 80 37 159 64 l142 50 0
-163 0 -162 -69 -7 c-38 -4 -77 -13 -87 -21 -11 -8 -39 -15 -64 -15 -25 0 -54
-6 -65 -14 -11 -7 -46 -16 -77 -19 -32 -3 -70 -12 -85 -20 -15 -8 -75 -23
-133 -32 -58 -9 -120 -23 -139 -31 -19 -8 -59 -17 -90 -20 -31 -3 -101 -14
-156 -24 -55 -10 -137 -23 -182 -29 -45 -6 -108 -20 -140 -32 -32 -12 -102
-28 -156 -36 -55 -8 -110 -18 -123 -23 -38 -15 -30 -61 13 -74 12 -4 51 -38
86 -77 36 -38 70 -69 77 -69 6 0 30 11 53 24 76 45 430 193 527 221 52 15 130
41 172 57 43 16 86 27 95 24 10 -3 43 1 73 9 76 20 77 20 84 -22 3 -21 9 -63
14 -94 4 -32 13 -63 19 -70 6 -8 14 -34 18 -59 19 -116 103 -182 187 -147 49
21 71 52 79 110 4 29 10 61 13 72 10 30 -47 110 -100 141 -24 14 -63 28 -87
31 -23 3 -64 17 -92 31 l-50 26 55 13 c30 7 73 11 95 8 28 -4 47 -1 60 9 11 9
36 16 56 16 19 0 39 4 45 9 5 5 24 12 42 16 l32 7 0 -467 0 -467 -100 7 c-84
6 -100 5 -100 -7 0 -25 42 -55 120 -86 l75 -30 3 -351 2 -351 -1195 0 -1195 0
0 1195 0 1195 808 -2 807 -3 -2 -90z m892 81 c-11 -7 -32 -15 -47 -18 -22 -4
-28 -1 -28 13 0 16 8 19 47 19 43 0 46 -1 28 -14z m405 10 c0 -2 -9 -25 -20
-51 -25 -59 -25 -82 0 -123 18 -29 20 -48 18 -129 -2 -77 -6 -98 -20 -107 -13
-8 -21 -6 -35 6 -19 17 -166 58 -206 58 -20 0 -26 -9 -43 -61 -23 -73 -55
-100 -125 -107 l-49 -5 0 171 0 171 38 10 c20 6 82 20 137 32 124 27 135 32
135 69 0 25 -6 31 -52 49 l-53 20 138 0 c75 1 137 -1 137 -3z m1910 -1191 l0
-1195 -1195 0 -1195 0 0 332 c0 183 4 328 8 322 109 -124 110 -126 110 -188 0
-82 15 -95 76 -68 57 26 129 93 217 202 57 70 69 91 69 122 0 20 6 43 13 50 8
7 17 46 20 86 4 40 14 90 23 110 13 31 16 97 20 396 3 360 12 459 40 470 8 3
14 0 14 -6 0 -16 137 -3 167 17 20 13 27 14 40 4 17 -15 95 -19 328 -16 85 1
227 -22 262 -43 41 -24 64 -25 102 -5 31 15 71 86 71 124 0 28 -41 67 -106
103 -68 37 -260 81 -327 75 -90 -7 -239 -35 -309 -57 -52 -16 -73 -18 -88 -10
-27 14 -25 34 5 54 14 9 25 25 25 35 0 10 11 35 25 55 22 33 25 47 25 131 l0
95 780 0 780 0 0 -1195z m-2196 483 c3 -62 6 -147 7 -188 0 -41 0 -100 1 -130
1 -89 0 -108 -11 -265 -20 -281 -38 -313 -160 -289 l-31 7 2 476 3 476 77 5
c42 3 80 8 84 13 18 17 22 1 28 -105z"/>
<path d="M1968 4288 c-32 -11 -35 -20 -12 -39 9 -7 30 -33 47 -58 17 -25 61
-79 99 -119 37 -39 68 -76 68 -82 0 -16 102 -91 117 -86 7 3 37 24 67 46 44
33 55 47 60 79 5 32 0 48 -32 101 -23 40 -58 80 -92 107 -57 44 -78 51 -98 31
-7 -7 -15 -8 -24 -1 -39 29 -147 41 -200 21z"/>
</g>
</svg>
